<?xml version="1.0" encoding="iso-8859-1"?>
<!-- Generator: Adobe Illustrator 19.0.0, SVG Export Plug-In . SVG Version: 6.00 Build 0)  -->
<svg version="1.1" id="Capa_1" xmlns="http://www.w3.org/2000/svg" xmlns:xlink="http://www.w3.org/1999/xlink" x="0px" y="0px"
	 viewBox="0 0 512 512" style="enable-background:new 0 0 512 512;" xml:space="preserve">
<g>
	<g>
		<path d="M497,0h-96.4c-8.285,0-15,6.716-15,15v81.399H512V15C512,6.716,505.283,0,497,0z"/>
	</g>
</g>
<g>
	<g>
		<path d="M385.599,126.399v322.402c0,3.978,1.58,7.793,4.393,10.606l48.201,48.199c2.93,2.929,6.768,4.394,10.607,4.394
			c3.838,0,7.678-1.465,10.605-4.394l48.199-48.199c2.814-2.814,4.395-6.628,4.395-10.606V126.399H385.599z"/>
	</g>
</g>
<g>
	<g>
		<path d="M340.599,0H15C6.715,0,0,6.716,0,15v482c0,8.284,6.715,15,15,15h325.599c8.283,0,15-6.716,15-15V15
			C355.599,6.716,348.883,0,340.599,0z M128.533,96.399h98.533c8.283,0,15,6.716,15,15s-6.717,15-15,15h-98.533
			c-8.285,0-15-6.716-15-15S120.248,96.399,128.533,96.399z M259.199,415.6H96.401c-8.285,0-15-6.716-15-15s6.715-15,15-15h162.798
			c8.283,0,15,6.716,15,15S267.482,415.6,259.199,415.6z M259.199,319.2H96.401c-8.285,0-15-6.716-15-15s6.715-15,15-15h162.798
			c8.283,0,15,6.716,15,15S267.482,319.2,259.199,319.2z M259.199,222.8H96.401c-8.285,0-15-6.716-15-15s6.715-15,15-15h162.798
			c8.283,0,15,6.716,15,15S267.482,222.8,259.199,222.8z"/>
	</g>
</g>
<g>
</g>
<g>
</g>
<g>
</g>
<g>
</g>
<g>
</g>
<g>
</g>
<g>
</g>
<g>
</g>
<g>
</g>
<g>
</g>
<g>
</g>
<g>
</g>
<g>
</g>
<g>
</g>
<g>
</g>
</svg>
